<?xml version="1.0" standalone="no"?>
<!DOCTYPE svg PUBLIC "-//W3C//DTD SVG 20010904//EN"
 "http://www.w3.org/TR/2001/REC-SVG-20010904/DTD/svg10.dtd">
<svg version="1.0" xmlns="http://www.w3.org/2000/svg"
 width="1024.000000pt" height="1024.000000pt" viewBox="0 0 1024.000000 1024.000000"
 preserveAspectRatio="xMidYMid meet">

<g transform="translate(0.000000,1024.000000) scale(0.100000,-0.100000)"
fill="#000000" stroke="none">
<path d="M4598 7167 c-117 -33 -198 -146 -198 -276 1 -184 193 -286 371 -195
136 68 187 271 99 392 -52 72 -172 107 -272 79z m105 -33 c61 -21 129 -82 157
-141 30 -65 25 -154 -12 -211 -33 -49 -114 -92 -173 -92 -85 0 -182 72 -220
164 -19 45 -19 149 -1 184 32 60 109 111 172 112 17 0 51 -7 77 -16z"/>
<path d="M5174 7171 c-93 -23 -172 -100 -200 -198 -57 -196 108 -357 307 -300
185 54 262 301 135 433 -59 61 -152 86 -242 65z m123 -50 c193 -99 196 -355 4
-420 -76 -25 -149 -6 -214 57 -80 76 -108 188 -69 274 21 47 71 93 119 108 40
13 115 4 160 -19z"/>
<path d="M6185 7162 c-52 -24 -78 -64 -78 -118 0 -73 27 -104 127 -144 49 -20
97 -46 107 -59 27 -33 24 -82 -5 -114 -30 -32 -61 -41 -131 -35 -62 5 -91 25
-104 72 -8 27 -9 22 -10 -33 l-1 -63 109 4 c100 3 112 5 136 28 43 40 58 78
52 129 -7 60 -51 101 -142 131 -119 40 -148 99 -81 166 50 50 112 47 175 -10
l23 -21 -7 25 c-11 38 -26 48 -80 55 -37 4 -60 1 -90 -13z"/>
<path d="M4013 7163 c16 -4 17 -24 17 -243 0 -181 -3 -240 -12 -243 -7 -3 41
-6 107 -6 96 -1 127 3 154 17 89 45 96 203 11 247 l-30 16 22 30 c28 37 30 95
4 133 -28 43 -72 56 -188 55 -57 -1 -95 -3 -85 -6z m159 -13 c48 -14 78 -52
78 -101 0 -78 -33 -109 -115 -109 l-45 0 0 110 c0 124 -1 123 82 100z m50
-230 c29 -8 41 -19 57 -53 25 -51 26 -85 7 -132 -17 -39 -66 -58 -128 -48 -58
9 -68 31 -68 145 l0 98 48 0 c26 0 64 -5 84 -10z"/>
<path d="M5548 7163 c9 -3 12 -62 12 -243 0 -181 -3 -240 -12 -243 -7 -3 11
-6 41 -6 45 -1 52 1 42 13 -8 9 -11 50 -9 120 l3 106 145 -111 c80 -61 144
-115 142 -120 -1 -5 32 -9 75 -9 l76 0 -44 23 c-24 12 -111 73 -192 136 l-148
113 145 108 c80 60 156 110 168 113 13 2 0 5 -29 6 -38 1 -51 -2 -48 -11 3
-11 -254 -214 -286 -226 -11 -4 -12 199 -1 214 4 6 14 14 22 17 8 3 -14 5 -50
5 -36 0 -59 -2 -52 -5z"/>
<path d="M4020 6384 c-204 -24 -331 -51 -530 -114 -176 -55 -170 -50 -170
-171 l0 -99 -75 0 c-101 0 -118 -16 -113 -103 l3 -62 -50 -5 c-57 -6 -89 -24
-104 -56 -6 -14 -10 -421 -12 -1154 -2 -958 0 -1133 12 -1141 8 -5 406 -9 901
-9 l887 0 53 -53 c31 -31 82 -67 123 -88 66 -32 75 -34 175 -34 99 0 109 2
175 34 42 21 91 56 123 88 l53 53 894 0 c625 0 896 3 900 11 4 6 6 519 6 1142
-2 1022 -4 1133 -18 1158 -20 34 -52 49 -103 49 l-40 0 0 63 c0 96 -12 107
-116 107 l-84 0 0 105 0 105 -37 18 c-100 50 -375 123 -558 147 -150 20 -408
16 -533 -10 -185 -37 -359 -109 -477 -198 -63 -47 -153 -137 -172 -172 -11
-19 -12 -19 -35 10 -144 186 -356 309 -622 361 -78 15 -379 27 -456 18z m410
-110 c257 -44 486 -176 599 -345 l41 -61 0 -1065 0 -1065 -41 34 c-160 130
-243 180 -382 228 -187 65 -333 84 -578 77 -240 -6 -300 -17 -632 -114 -16 -5
-17 50 -15 1087 l3 1093 65 24 c312 117 654 156 940 107z m1785 16 c116 -10
212 -26 325 -55 69 -18 238 -73 262 -86 17 -9 18 -64 18 -1101 l0 -1090 -22 5
c-13 3 -68 20 -123 36 -174 53 -294 73 -487 78 -246 8 -389 -11 -582 -76 -144
-49 -317 -153 -400 -240 -17 -17 -32 -31 -35 -31 -3 0 -4 485 -1 1077 l5 1078
32 46 c56 80 172 180 269 230 215 112 448 153 739 129z m-2895 -1419 c0 -572
4 -1042 8 -1045 5 -3 53 11 108 30 270 96 398 124 605 131 270 9 477 -27 664
-117 154 -73 305 -195 305 -245 0 -4 -39 14 -86 39 -304 162 -520 215 -870
216 -154 0 -207 -4 -364 -30 -186 -31 -356 -70 -418 -96 -19 -8 -36 -14 -38
-14 -2 0 -4 484 -4 1075 l0 1076 23 9 c12 5 32 9 45 9 l22 1 0 -1039z m3676
1031 c8 -5 13 -312 17 -1084 3 -593 4 -1078 3 -1078 0 0 -33 11 -73 25 -98 33
-351 84 -503 101 -172 19 -432 18 -551 -2 -171 -29 -324 -79 -487 -159 -84
-41 -160 -75 -168 -75 -27 0 19 53 99 114 149 114 281 173 492 222 111 26 448
26 580 0 111 -21 276 -67 381 -105 43 -16 89 -32 102 -35 l22 -7 0 1039 c0
823 3 1041 13 1045 19 8 61 8 73 -1z m-3866 -1222 l0 -1060 598 0 c353 0 615
-5 642 -10 96 -21 94 -20 81 -33 -9 -9 -184 -13 -702 -16 l-689 -3 6 1083 c5
770 10 1086 18 1091 6 4 19 8 29 8 16 0 17 -57 17 -1060z m4028 1051 c11 -7
15 -201 18 -1090 l5 -1081 -589 0 c-581 0 -802 6 -802 21 0 4 32 15 72 24 63
14 149 16 661 15 l588 0 -1 707 c-2 1413 -2 1413 18 1413 9 0 23 -4 30 -9z
m-2762 -1970 c154 -29 363 -107 439 -164 40 -30 4 -29 -63 1 -104 49 -176 70
-307 95 -112 21 -148 22 -557 22 -240 0 -435 1 -433 3 2 2 216 38 390 65 17 3
118 4 225 2 147 -2 222 -8 306 -24z m2149 -7 l170 -29 -405 -6 c-317 -4 -425
-9 -495 -22 -149 -28 -224 -48 -325 -87 -52 -21 -97 -36 -99 -34 -28 25 215
133 389 173 157 35 207 40 405 37 152 -3 224 -9 360 -32z m-1569 -215 c32 -35
70 -49 136 -49 69 0 139 26 156 57 10 17 13 15 46 -16 20 -19 36 -40 36 -47 0
-7 -21 -26 -47 -43 -128 -85 -280 -77 -382 18 l-33 31 28 34 c16 19 32 35 35
35 3 1 14 -8 25 -20z"/>
<path d="M3472 2228 c-6 -6 -12 -20 -12 -29 0 -32 25 -40 115 -37 71 2 90 6
99 21 8 12 8 22 0 35 -9 14 -28 18 -100 20 -61 2 -93 -1 -102 -10z"/>
<path d="M3850 2221 c-13 -25 -13 -27 6 -45 12 -12 20 -13 35 -6 23 13 25 55
3 64 -25 10 -33 7 -44 -13z"/>
<path d="M4110 2220 c-8 -14 -8 -26 0 -40 11 -20 21 -20 1324 -20 l1313 0 13
25 c11 20 11 27 0 40 -11 13 -158 15 -1326 15 -1303 0 -1313 0 -1324 -20z"/>
</g>
</svg>
